# xmcd
#
# Track frame offsets:
#	150
#	18597
#	38130
#	52805
#	70305
#	85912
#	104322
#	124540
#	142035
#	160445
#	179900
#	194535
#	211970
#	227575
#	245932
#	266095
#
# Disc length: 3782 seconds
#
# Revision: 1
# Processed by: cddbd v1.5.1PL2 Copyright (c) Steve Scherf et al.
# Submitted via: audiograbber 1.83.01
#
DISCID=f00ec410
DTITLE=Sound Choice - SC3230
DYEAR=1900
DGENRE=Karaoke Country
TTITLE0=Billy Ray Cyrus - You Won'T Be Lonely Now
TTITLE1=The Kinleys - I'M In (Radio Version)
TTITLE2=Mark Chesnutt - Lost In The Feeling
TTITLE3=Diamond Rio - One More Day
TTITLE4=The Warren Brothers - Move On
TTITLE5=Tim Rushlow - She Misses Him
TTITLE6=Sonya Isaacs - How Can I Forget
TTITLE7=Toby Keith - You Shouldn'T Kiss Me Like This
TTITLE8=Billy Ray Cyrus - You Won'T Be Lonely Now
TTITLE9=The Kinleys - I'M In (Radio Version)
TTITLE10=Mark Chesnutt - Lost In The Feeling
TTITLE11=Diamond Rio - One More Day
TTITLE12=The Warren Brothers - Move On
TTITLE13=Tim Rushlow - She Misses Him
TTITLE14=Sonya Isaacs - How Can I Forget
TTITLE15=Toby Keith - You Shouldn'T Kiss Me Like This
EXTD=Tracks 9-16 Demos
EXTT0=
EXTT1=
EXTT2=
EXTT3=
EXTT4=
EXTT5=
EXTT6=
EXTT7=
EXTT8=
EXTT9=
EXTT10=
EXTT11=
EXTT12=
EXTT13=
EXTT14=
EXTT15=
PLAYORDER=
